<svg width="560" height="102" viewBox="0 0 560 102" fill="none" xmlns="http://www.w3.org/2000/svg">
<path d="M96.1143 9.24176L76.3986 0V12.3224H0V33.2703H32.4489V81.7383L52.1646 90.7747V33.2703H76.3986V78.2469H96.1143V53.8076H130.206V78.4523H149.922V12.3224H130.206V32.8596H96.1143V9.24176Z" fill="#F22C54"/>
<mask id="mask0_133_572" style="mask-type:alpha" maskUnits="userSpaceOnUse" x="140" y="12" width="75" height="67">
<path d="M214.235 12.3225H173.335V12.3231L173.263 12.3228C173.219 12.3226 173.174 12.3225 173.13 12.3225C154.868 12.3225 140.065 27.1262 140.065 45.3875C140.065 63.6488 154.868 78.4525 173.13 78.4525C173.198 78.4525 173.267 78.4523 173.335 78.4518V78.4525H214.235C214.214 78.4388 214.194 78.4252 214.173 78.4115L198.391 57.5045H173.335V57.5028C173.267 57.5039 173.198 57.5045 173.13 57.5045C166.438 57.5045 161.013 52.0795 161.013 45.3875C161.013 38.6955 166.438 33.2705 173.13 33.2705C173.198 33.2705 173.267 33.2711 173.335 33.2722V33.2705H198.391L214.173 12.3634L214.235 12.3225Z" fill="#7A7A7A"/>
</mask>
<g mask="url(#mask0_133_572)">
<path d="M213.382 11.0904L161.423 80.0956" stroke="#F22C54" stroke-width="2.46447"/>
<path d="M242.135 11.0904L190.176 80.0956" stroke="#F22C54" stroke-width="2.46447"/>
<path d="M219.133 11.0904L167.174 80.0956" stroke="#F22C54" stroke-width="2.46447"/>
<path d="M247.885 11.0904L195.926 80.0956" stroke="#F22C54" stroke-width="2.46447"/>
<path d="M224.884 11.0904L172.924 80.0956" stroke="#F22C54" stroke-width="2.46447"/>
<path d="M253.636 11.0904L201.677 80.0956" stroke="#F22C54" stroke-width="2.46447"/>
<path d="M259.386 11.0904L207.427 80.0956" stroke="#F22C54" stroke-width="2.46447"/>
<path d="M265.137 11.0904L213.177 80.0956" stroke="#F22C54" stroke-width="2.46447"/>
<path d="M207.632 11.0904L155.673 80.0956" stroke="#F22C54" stroke-width="2.46447"/>
<path d="M236.385 11.0904L184.425 80.0956" stroke="#F22C54" stroke-width="2.46447"/>
<path d="M201.882 11.0904L149.923 80.0956" stroke="#F22C54" stroke-width="2.46447"/>
<path d="M230.634 11.0904L178.675 80.0956" stroke="#F22C54" stroke-width="2.46447"/>
<path d="M196.132 11.0904L144.172 80.0956" stroke="#F22C54" stroke-width="2.46447"/>
<path d="M190.381 11.0904L138.422 80.0956" stroke="#F22C54" stroke-width="2.46447"/>
<path d="M184.631 11.0904L132.671 80.0956" stroke="#F22C54" stroke-width="2.46447"/>
<path d="M178.88 11.0904L126.921 80.0956" stroke="#F22C54" stroke-width="2.46447"/>
<path d="M173.129 11.0904L121.17 80.0956" stroke="#F22C54" stroke-width="2.46447"/>
<path d="M167.379 11.0904L115.42 80.0956" stroke="#F22C54" stroke-width="2.46447"/>
<path d="M161.629 11.0904L109.669 80.0956" stroke="#F22C54" stroke-width="2.46447"/>
<path d="M155.878 11.0904L103.919 80.0956" stroke="#F22C54" stroke-width="2.46447"/>
</g>
<mask id="mask1_133_572" style="mask-type:alpha" maskUnits="userSpaceOnUse" x="204" y="12" width="146" height="67">
<path fill-rule="evenodd" clip-rule="evenodd" d="M276.021 12.3225V21.8349C270.052 15.9526 261.857 12.3225 252.814 12.3225L252.746 12.3226C252.7 12.3227 252.654 12.3229 252.609 12.3232V12.3225H237.822V12.3232C237.753 12.3227 237.685 12.3225 237.616 12.3225C219.355 12.3225 204.552 27.1262 204.552 45.3875C204.552 63.6488 219.355 78.4525 237.616 78.4525L237.711 78.4523C237.748 78.4522 237.785 78.4521 237.822 78.4519V78.4525H252.609V78.4519C252.677 78.4523 252.746 78.4525 252.814 78.4525C261.857 78.4525 270.052 74.8225 276.021 68.9401V78.4525H295.737V43.2757L329.259 78.9413L329.779 78.4525H349.134V12.3225H329.418V48.5239L295.737 12.6887V12.3225H276.021ZM252.609 33.2722C252.645 33.2716 252.681 33.2712 252.718 33.2709C252.75 33.2707 252.782 33.2705 252.814 33.2705C259.506 33.2705 264.931 38.6955 264.931 45.3875C264.931 52.0795 259.506 57.5045 252.814 57.5045L252.76 57.5044L252.706 57.504L252.693 57.5039C252.665 57.5036 252.637 57.5033 252.609 57.5028V57.5045H237.822V57.5028L237.791 57.5033L237.755 57.5037L237.726 57.504L237.694 57.5042L237.653 57.5044L237.616 57.5045C230.924 57.5045 225.5 52.0795 225.5 45.3875C225.5 38.6955 230.924 33.2705 237.616 33.2705L237.659 33.2706L237.723 33.271C237.743 33.2711 237.762 33.2714 237.781 33.2716L237.822 33.2722V33.2705H252.609V33.2722Z" fill="#999999"/>
</mask>
<g mask="url(#mask1_133_572)">
<path d="M223.651 11.0904L171.692 80.0956" stroke="#F22C54" stroke-width="2.46447"/>
<path d="M229.402 11.0904L177.442 80.0956" stroke="#F22C54" stroke-width="2.46447"/>
<path d="M235.152 11.0904L183.193 80.0956" stroke="#F22C54" stroke-width="2.46447"/>
<path d="M240.903 11.0904L188.943 80.0956" stroke="#F22C54" stroke-width="2.46447"/>
<path d="M246.653 11.0904L194.694 80.0956" stroke="#F22C54" stroke-width="2.46447"/>
<path d="M252.403 11.0904L200.444 80.0956" stroke="#F22C54" stroke-width="2.46447"/>
<path d="M258.154 11.0904L206.195 80.0956" stroke="#F22C54" stroke-width="2.46447"/>
<path d="M263.904 11.0904L211.945 80.0956" stroke="#F22C54" stroke-width="2.46447"/>
<path d="M269.655 11.0904L217.695 80.0956" stroke="#F22C54" stroke-width="2.46447"/>
<path d="M275.405 11.0904L223.446 80.0956" stroke="#F22C54" stroke-width="2.46447"/>
<path d="M281.156 11.0904L229.197 80.0956" stroke="#F22C54" stroke-width="2.46447"/>
<path d="M286.906 11.0904L234.947 80.0956" stroke="#F22C54" stroke-width="2.46447"/>
<path d="M292.656 11.0904L240.697 80.0956" stroke="#F22C54" stroke-width="2.46447"/>
<path d="M298.407 11.0904L246.448 80.0956" stroke="#F22C54" stroke-width="2.46447"/>
<path d="M304.157 11.0904L252.198 80.0956" stroke="#F22C54" stroke-width="2.46447"/>
<path d="M309.908 11.0904L257.948 80.0956" stroke="#F22C54" stroke-width="2.46447"/>
<path d="M315.658 11.0904L263.699 80.0956" stroke="#F22C54" stroke-width="2.46447"/>
<path d="M321.408 11.0904L269.449 80.0956" stroke="#F22C54" stroke-width="2.46447"/>
<path d="M327.159 11.0904L275.2 80.0956" stroke="#F22C54" stroke-width="2.46447"/>
<path d="M332.909 11.0904L280.95 80.0956" stroke="#F22C54" stroke-width="2.46447"/>
<path d="M338.66 11.0904L286.701 80.0956" stroke="#F22C54" stroke-width="2.46447"/>
<path d="M344.41 11.0904L292.451 80.0956" stroke="#F22C54" stroke-width="2.46447"/>
<path d="M350.161 11.0904L298.202 80.0956" stroke="#F22C54" stroke-width="2.46447"/>
<path d="M355.911 11.0904L303.952 80.0956" stroke="#F22C54" stroke-width="2.46447"/>
<path d="M361.661 11.0904L309.702 80.0956" stroke="#F22C54" stroke-width="2.46447"/>
<path d="M367.412 11.0904L315.453 80.0956" stroke="#F22C54" stroke-width="2.46447"/>
<path d="M373.162 11.0904L321.203 80.0956" stroke="#F22C54" stroke-width="2.46447"/>
<path d="M378.913 11.0904L326.954 80.0956" stroke="#F22C54" stroke-width="2.46447"/>
<path d="M384.663 11.0904L332.704 80.0956" stroke="#F22C54" stroke-width="2.46447"/>
<path d="M390.414 11.0904L338.455 80.0956" stroke="#F22C54" stroke-width="2.46447"/>
<path d="M396.164 11.0904L344.205 80.0956" stroke="#F22C54" stroke-width="2.46447"/>
</g>
<path d="M69.8198 96.559H67.4785V86.1015H69.8198V96.559ZM73.1912 88.2086H64.1071V86.1015H73.1912V88.2086ZM79.6942 96.7151C78.6433 96.7151 77.7432 96.4966 76.994 96.0596C76.2552 95.6121 75.6829 94.9878 75.2771 94.1866C74.8713 93.3749 74.6684 92.4228 74.6684 91.3302C74.6684 90.2377 74.8713 89.2908 75.2771 88.4895C75.6829 87.6779 76.2552 87.0536 76.994 86.6165C77.7432 86.1691 78.6433 85.9454 79.6942 85.9454C80.7348 85.9454 81.6297 86.1691 82.3789 86.6165C83.1281 87.0536 83.7004 87.6779 84.0958 88.4895C84.5016 89.2908 84.7045 90.2377 84.7045 91.3302C84.7045 92.4228 84.5016 93.3749 84.0958 94.1866C83.7004 94.9878 83.1281 95.6121 82.3789 96.0596C81.6297 96.4966 80.7348 96.7151 79.6942 96.7151ZM79.6942 94.4519C80.2874 94.4519 80.766 94.3635 81.1302 94.1866C81.5048 93.9993 81.7753 93.6819 81.9418 93.2345C82.1187 92.7766 82.2072 92.1419 82.2072 91.3302C82.2072 90.5082 82.1187 89.8735 81.9418 89.426C81.7753 88.9786 81.5048 88.6664 81.1302 88.4895C80.766 88.3022 80.2874 88.2086 79.6942 88.2086C79.0907 88.2086 78.6017 88.3022 78.2271 88.4895C77.8629 88.6664 77.5923 88.9786 77.4154 89.426C77.2489 89.8735 77.1657 90.5082 77.1657 91.3302C77.1657 92.1419 77.2489 92.7766 77.4154 93.2345C77.5923 93.6819 77.8629 93.9993 78.2271 94.1866C78.6017 94.3635 79.0907 94.4519 79.6942 94.4519ZM91.7781 96.7151C90.7584 96.7151 89.9051 96.5434 89.2184 96.2C88.542 95.8566 88.0321 95.3728 87.6887 94.7485C87.3558 94.1137 87.1893 93.3593 87.1893 92.4853V86.1015H89.5149V92.454C89.5149 92.9535 89.5825 93.3489 89.7178 93.6403C89.8635 93.9316 90.0976 94.1397 90.4202 94.2646C90.7428 94.3895 91.1954 94.4519 91.7781 94.4519C92.3504 94.4519 92.7979 94.3895 93.1204 94.2646C93.4534 94.1397 93.6875 93.9316 93.8228 93.6403C93.9581 93.3489 94.0257 92.9535 94.0257 92.454V86.1015H96.367V92.4853C96.367 93.3593 96.1953 94.1137 95.8519 94.7485C95.5085 95.3728 94.9934 95.8566 94.3067 96.2C93.6303 96.5434 92.7875 96.7151 91.7781 96.7151ZM101.56 96.559H99.2191V86.1015H101.56V96.559ZM106.961 96.559H99.8747V94.4519H106.961V96.559ZM113.387 96.7151C112.336 96.7151 111.436 96.4966 110.687 96.0596C109.948 95.6121 109.376 94.9878 108.97 94.1866C108.564 93.3749 108.362 92.4228 108.362 91.3302C108.362 90.2377 108.564 89.2908 108.97 88.4895C109.376 87.6779 109.948 87.0536 110.687 86.6165C111.436 86.1691 112.336 85.9454 113.387 85.9454C114.428 85.9454 115.323 86.1691 116.072 86.6165C116.821 87.0536 117.394 87.6779 117.789 88.4895C118.195 89.2908 118.398 90.2377 118.398 91.3302C118.398 92.4228 118.195 93.3749 117.789 94.1866C117.394 94.9878 116.821 95.6121 116.072 96.0596C115.323 96.4966 114.428 96.7151 113.387 96.7151ZM113.387 94.4519C113.981 94.4519 114.459 94.3635 114.823 94.1866C115.198 93.9993 115.469 93.6819 115.635 93.2345C115.812 92.7766 115.9 92.1419 115.9 91.3302C115.9 90.5082 115.812 89.8735 115.635 89.426C115.469 88.9786 115.198 88.6664 114.823 88.4895C114.459 88.3022 113.981 88.2086 113.387 88.2086C112.784 88.2086 112.295 88.3022 111.92 88.4895C111.556 88.6664 111.286 88.9786 111.109 89.426C110.942 89.8735 110.859 90.5082 110.859 91.3302C110.859 92.1419 110.942 92.7766 111.109 93.2345C111.286 93.6819 111.556 93.9993 111.92 94.1866C112.295 94.3635 112.784 94.4519 113.387 94.4519ZM125.471 96.7151C124.452 96.7151 123.598 96.5434 122.912 96.2C122.235 95.8566 121.725 95.3728 121.382 94.7485C121.049 94.1137 120.882 93.3593 120.882 92.4853V86.1015H123.208V92.454C123.208 92.9535 123.276 93.3489 123.411 93.6403C123.557 93.9316 123.791 94.1397 124.113 94.2646C124.436 94.3895 124.889 94.4519 125.471 94.4519C126.044 94.4519 126.491 94.3895 126.814 94.2646C127.147 94.1397 127.381 93.9316 127.516 93.6403C127.651 93.3489 127.719 92.9535 127.719 92.454V86.1015H130.06V92.4853C130.06 93.3593 129.888 94.1137 129.545 94.7485C129.202 95.3728 128.687 95.8566 128 96.2C127.324 96.5434 126.481 96.7151 125.471 96.7151ZM137.255 96.7151C136.235 96.7151 135.393 96.5798 134.727 96.3093C134.061 96.0387 133.566 95.6381 133.244 95.1074C132.921 94.5768 132.76 93.9264 132.76 93.1564V92.9535H135.054V93.1096C135.054 93.4946 135.117 93.7963 135.242 94.0149C135.367 94.223 135.59 94.3739 135.913 94.4675C136.246 94.5508 136.73 94.5924 137.364 94.5924C138.03 94.5924 138.473 94.5195 138.691 94.3739C138.91 94.2282 139.019 93.9784 139.019 93.6247C139.019 93.3853 138.982 93.1928 138.91 93.0472C138.847 92.9015 138.701 92.7818 138.473 92.6882C138.244 92.5841 137.885 92.4957 137.396 92.4228L135.554 92.095C134.888 91.9806 134.342 91.7933 133.915 91.5331C133.499 91.2626 133.192 90.9296 132.994 90.5342C132.807 90.1284 132.713 89.6549 132.713 89.1139C132.713 88.5728 132.848 88.0629 133.119 87.5842C133.4 87.1056 133.847 86.7154 134.461 86.4136C135.086 86.1015 135.892 85.9454 136.881 85.9454C137.879 85.9454 138.686 86.1015 139.3 86.4136C139.924 86.7258 140.382 87.1576 140.673 87.7091C140.965 88.2502 141.11 88.8693 141.11 89.5665V89.6914H138.8V89.5197C138.8 89.1555 138.743 88.8693 138.629 88.6612C138.514 88.4531 138.311 88.3022 138.02 88.2086C137.729 88.1149 137.323 88.0681 136.802 88.0681C136.137 88.0681 135.673 88.1461 135.413 88.3022C135.164 88.4479 135.039 88.6872 135.039 89.0202C135.039 89.2387 135.08 89.4156 135.164 89.5509C135.247 89.6758 135.393 89.7746 135.601 89.8474C135.819 89.9203 136.131 89.9983 136.537 90.0816L138.395 90.4406C139.123 90.5758 139.7 90.7944 140.127 91.0961C140.564 91.3875 140.876 91.7413 141.064 92.1575C141.251 92.5737 141.344 93.0367 141.344 93.5466C141.344 94.0981 141.209 94.6184 140.939 95.1074C140.668 95.5861 140.236 95.9763 139.643 96.2781C139.05 96.5694 138.254 96.7151 137.255 96.7151ZM146.032 96.559H143.691V86.1015H146.032V96.559ZM151.667 96.559H144.347V94.4519H151.667V96.559ZM151.433 92.3448H144.347V90.2533H151.433V92.3448ZM151.667 88.2086H144.347V86.1015H151.667V88.2086ZM168.011 96.559H165.67V86.1015H168.011V96.559ZM161.112 96.559H158.771V86.1015H161.112V96.559ZM166.856 92.3448H159.426V90.2533H166.856V92.3448ZM172.334 96.559H169.899L173.754 86.1015H177.157L181.012 96.559H178.468L176.267 90.5186L175.503 88.1617H175.346L174.55 90.5186L172.334 96.559ZM178.968 94.2334H172.038V92.1419H178.968V94.2334ZM187.391 96.7151C186.34 96.7151 185.44 96.4966 184.691 96.0596C183.952 95.6121 183.38 94.9878 182.974 94.1866C182.579 93.3749 182.381 92.4228 182.381 91.3302C182.381 90.2377 182.579 89.2908 182.974 88.4895C183.38 87.6779 183.952 87.0536 184.691 86.6165C185.44 86.1691 186.34 85.9454 187.391 85.9454C188.432 85.9454 189.301 86.1171 189.998 86.4604C190.705 86.8038 191.241 87.2929 191.605 87.9276C191.97 88.552 192.152 89.296 192.152 90.1596V90.3001H189.654V90.222C189.654 89.4728 189.483 88.9526 189.139 88.6612C188.796 88.3595 188.208 88.2086 187.376 88.2086C186.782 88.2086 186.304 88.297 185.94 88.4739C185.575 88.6508 185.305 88.963 185.128 89.4104C184.962 89.8579 184.878 90.4978 184.878 91.3302C184.878 92.1523 184.962 92.7922 185.128 93.2501C185.305 93.6975 185.575 94.0097 185.94 94.1866C186.304 94.3635 186.782 94.4519 187.376 94.4519C188.208 94.4519 188.796 94.3062 189.139 94.0149C189.483 93.7131 189.654 93.1876 189.654 92.4384V92.3604H192.152V92.5009C192.152 93.3645 191.97 94.1137 191.605 94.7485C191.241 95.3728 190.705 95.8566 189.998 96.2C189.301 96.5434 188.432 96.7151 187.391 96.7151ZM204.07 96.559H201.386L199.044 92.5321H195.829V90.2689H199.013L201.464 86.1015H204.117L200.964 91.2834L204.07 96.559ZM197.031 96.559H194.69V86.1015H197.031V96.559ZM208.374 96.559H206.032V86.1015H208.374V96.559ZM213.635 96.559H211.294V86.1015H213.791L217.178 91.3458L218.052 92.7506H218.208L218.177 91.3458V86.1015H220.518V96.559H218.021L214.774 91.6112L213.76 90.0035H213.604L213.635 91.6112V96.559ZM227.661 96.7151C226.662 96.7151 225.82 96.5018 225.133 96.0752C224.446 95.6381 223.921 95.019 223.556 94.2178C223.203 93.4061 223.026 92.4436 223.026 91.3302C223.026 90.2377 223.229 89.2908 223.634 88.4895C224.04 87.6779 224.623 87.0536 225.383 86.6165C226.142 86.1691 227.053 85.9454 228.114 85.9454C229.155 85.9454 230.029 86.1119 230.736 86.4448C231.444 86.7674 231.98 87.2253 232.344 87.8184C232.708 88.4115 232.89 89.1243 232.89 89.9567V90.0347H230.408V89.9723C230.408 89.3064 230.232 88.8485 229.878 88.5988C229.524 88.3386 228.92 88.2086 228.067 88.2086C227.474 88.2086 226.99 88.297 226.616 88.4739C226.241 88.6508 225.965 88.9682 225.788 89.426C225.611 89.8735 225.523 90.5082 225.523 91.3302C225.523 92.1627 225.617 92.8078 225.804 93.2657C225.991 93.7235 226.288 94.0409 226.694 94.2178C227.099 94.3947 227.63 94.4831 228.286 94.4831C228.837 94.4831 229.285 94.4415 229.628 94.3582C229.982 94.275 230.242 94.1189 230.408 93.89C230.585 93.6611 230.674 93.3333 230.674 92.9067V92.2043H232.921V92.4384L230.924 94.967H230.658C230.554 95.2375 230.382 95.5081 230.143 95.7786C229.914 96.0491 229.597 96.2729 229.191 96.4498C228.785 96.6267 228.275 96.7151 227.661 96.7151ZM232.921 96.559H230.752V93.7339L230.674 93.5466V91.2834H232.921V96.559ZM232.921 92.9535H227.817V91.0025H232.921V92.9535ZM244.977 96.7151C243.926 96.7151 243.026 96.4966 242.276 96.0596C241.538 95.6121 240.965 94.9878 240.56 94.1866C240.164 93.3749 239.966 92.4228 239.966 91.3302C239.966 90.2377 240.164 89.2908 240.56 88.4895C240.965 87.6779 241.538 87.0536 242.276 86.6165C243.026 86.1691 243.926 85.9454 244.977 85.9454C246.017 85.9454 246.886 86.1171 247.583 86.4604C248.291 86.8038 248.827 87.2929 249.191 87.9276C249.555 88.552 249.737 89.296 249.737 90.1596V90.3001H247.24V90.222C247.24 89.4728 247.068 88.9526 246.725 88.6612C246.381 88.3595 245.794 88.2086 244.961 88.2086C244.368 88.2086 243.889 88.297 243.525 88.4739C243.161 88.6508 242.89 88.963 242.714 89.4104C242.547 89.8579 242.464 90.4978 242.464 91.3302C242.464 92.1523 242.547 92.7922 242.714 93.2501C242.89 93.6975 243.161 94.0097 243.525 94.1866C243.889 94.3635 244.368 94.4519 244.961 94.4519C245.794 94.4519 246.381 94.3062 246.725 94.0149C247.068 93.7131 247.24 93.1876 247.24 92.4384V92.3604H249.737V92.5009C249.737 93.3645 249.555 94.1137 249.191 94.7485C248.827 95.3728 248.291 95.8566 247.583 96.2C246.886 96.5434 246.017 96.7151 244.977 96.7151ZM257.174 96.7151C256.123 96.7151 255.222 96.4966 254.473 96.0596C253.734 95.6121 253.162 94.9878 252.756 94.1866C252.351 93.3749 252.148 92.4228 252.148 91.3302C252.148 90.2377 252.351 89.2908 252.756 88.4895C253.162 87.6779 253.734 87.0536 254.473 86.6165C255.222 86.1691 256.123 85.9454 257.174 85.9454C258.214 85.9454 259.109 86.1691 259.858 86.6165C260.607 87.0536 261.18 87.6779 261.575 88.4895C261.981 89.2908 262.184 90.2377 262.184 91.3302C262.184 92.4228 261.981 93.3749 261.575 94.1866C261.18 94.9878 260.607 95.6121 259.858 96.0596C259.109 96.4966 258.214 96.7151 257.174 96.7151ZM257.174 94.4519C257.767 94.4519 258.245 94.3635 258.609 94.1866C258.984 93.9993 259.255 93.6819 259.421 93.2345C259.598 92.7766 259.686 92.1419 259.686 91.3302C259.686 90.5082 259.598 89.8735 259.421 89.426C259.255 88.9786 258.984 88.6664 258.609 88.4895C258.245 88.3022 257.767 88.2086 257.174 88.2086C256.57 88.2086 256.081 88.3022 255.706 88.4895C255.342 88.6664 255.072 88.9786 254.895 89.426C254.728 89.8735 254.645 90.5082 254.645 91.3302C254.645 92.1419 254.728 92.7766 254.895 93.2345C255.072 93.6819 255.342 93.9993 255.706 94.1866C256.081 94.3635 256.57 94.4519 257.174 94.4519ZM267.057 96.559H264.715V86.1015H267.213L270.6 91.3458L271.474 92.7506H271.63L271.599 91.3458V86.1015H273.94V96.559H271.443L268.196 91.6112L267.181 90.0035H267.025L267.057 91.6112V96.559ZM282.821 96.559H279.699L275.906 86.1015H278.544L281.213 93.9368H281.369L283.991 86.1015H286.613L282.821 96.559ZM290.931 96.559H288.59V86.1015H290.931V96.559ZM296.566 96.559H289.246V94.4519H296.566V96.559ZM296.332 92.3448H289.246V90.2533H296.332V92.3448ZM296.566 88.2086H289.246V86.1015H296.566V88.2086ZM301.542 96.559H299.201V86.1015H301.699L305.086 91.3458L305.96 92.7506H306.116L306.084 91.3458V86.1015H308.426V96.559H305.928L302.682 91.6112L301.667 90.0035H301.511L301.542 91.6112V96.559ZM316.073 96.559H313.731V86.1015H316.073V96.559ZM319.444 88.2086H310.36V86.1015H319.444V88.2086ZM323.725 96.559H321.384V86.1015H323.725V96.559ZM331.33 96.7151C330.279 96.7151 329.379 96.4966 328.63 96.0596C327.891 95.6121 327.319 94.9878 326.913 94.1866C326.507 93.3749 326.304 92.4228 326.304 91.3302C326.304 90.2377 326.507 89.2908 326.913 88.4895C327.319 87.6779 327.891 87.0536 328.63 86.6165C329.379 86.1691 330.279 85.9454 331.33 85.9454C332.371 85.9454 333.265 86.1691 334.015 86.6165C334.764 87.0536 335.336 87.6779 335.732 88.4895C336.137 89.2908 336.34 90.2377 336.34 91.3302C336.34 92.4228 336.137 93.3749 335.732 94.1866C335.336 94.9878 334.764 95.6121 334.015 96.0596C333.265 96.4966 332.371 96.7151 331.33 96.7151ZM331.33 94.4519C331.923 94.4519 332.402 94.3635 332.766 94.1866C333.141 93.9993 333.411 93.6819 333.578 93.2345C333.755 92.7766 333.843 92.1419 333.843 91.3302C333.843 90.5082 333.755 89.8735 333.578 89.426C333.411 88.9786 333.141 88.6664 332.766 88.4895C332.402 88.3022 331.923 88.2086 331.33 88.2086C330.727 88.2086 330.237 88.3022 329.863 88.4895C329.499 88.6664 329.228 88.9786 329.051 89.426C328.885 89.8735 328.802 90.5082 328.802 91.3302C328.802 92.1419 328.885 92.7766 329.051 93.2345C329.228 93.6819 329.499 93.9993 329.863 94.1866C330.237 94.3635 330.727 94.4519 331.33 94.4519ZM341.213 96.559H338.872V86.1015H341.369L344.756 91.3458L345.63 92.7506H345.786L345.755 91.3458V86.1015H348.096V96.559H345.599L342.353 91.6112L341.338 90.0035H341.182L341.213 91.6112V96.559Z" fill="#F22C54"/>
<path d="M410.074 77.5248H357.191V67.4186C357.191 63.3761 357.801 60.1036 359.021 57.6011C360.241 55.0986 361.911 53.0453 364.03 51.4412C366.214 49.837 368.686 48.3612 371.447 47.0137L388.593 38.64C389.557 38.1908 390.327 37.7737 390.905 37.3887C391.483 36.9396 391.901 36.4263 392.157 35.8488C392.414 35.2071 392.543 34.405 392.543 33.4425C392.543 32.2234 392.286 31.2609 391.772 30.555C391.258 29.8492 390.359 29.3359 389.075 29.015C387.791 28.6942 385.993 28.5338 383.681 28.5338C381.112 28.5338 379.185 28.7584 377.901 29.2075C376.617 29.6567 375.75 30.3946 375.3 31.4213C374.915 32.3838 374.722 33.6992 374.722 35.3675V37.1H356.613V35.56C356.613 31.2609 357.544 27.3467 359.406 23.8176C361.333 20.2243 364.383 17.3689 368.557 15.2514C372.732 13.1339 378.254 12.0751 385.126 12.0751C391.098 12.0751 395.946 13.0055 399.671 14.8664C403.46 16.7272 406.221 19.2618 407.955 22.4701C409.753 25.6142 410.652 29.1434 410.652 33.0575C410.652 37.1642 409.785 40.5971 408.051 43.3562C406.317 46.0512 404.102 48.2649 401.405 49.9974C398.708 51.6658 395.946 52.9812 393.121 53.9437L381.08 57.9861C379.218 58.6278 378.03 59.2695 377.516 59.9111C377.002 60.5528 376.745 61.3228 376.745 62.2211L385.993 61.2586H410.074V77.5248Z" fill="#FAFAFA"/>
<path d="M431.652 78.4873C425.102 78.4873 419.579 77.1077 415.084 74.3485C410.653 71.5252 407.313 67.6432 405.066 62.7024C402.818 57.6974 401.694 51.8903 401.694 45.2812C401.694 38.6721 402.818 32.8971 405.066 27.9563C407.313 22.9513 410.653 19.0693 415.084 16.3101C419.579 13.4868 425.102 12.0751 431.652 12.0751C438.202 12.0751 443.693 13.4868 448.124 16.3101C452.619 19.0693 455.99 22.9513 458.238 27.9563C460.485 32.8971 461.609 38.6721 461.609 45.2812C461.609 51.8903 460.485 57.6974 458.238 62.7024C455.99 67.6432 452.619 71.5252 448.124 74.3485C443.693 77.1077 438.202 78.4873 431.652 78.4873ZM431.652 60.8736C434.413 60.8736 436.532 60.5207 438.009 59.8149C439.551 59.0449 440.61 57.537 441.188 55.2912C441.83 53.0453 442.151 49.7087 442.151 45.2812C442.151 40.7896 441.83 37.4529 441.188 35.2713C440.61 33.0254 439.551 31.5496 438.009 30.8438C436.532 30.0738 434.413 29.6888 431.652 29.6888C428.89 29.6888 426.739 30.0738 425.198 30.8438C423.657 31.5496 422.597 33.0254 422.019 35.2713C421.441 37.4529 421.152 40.7896 421.152 45.2812C421.152 49.7087 421.441 53.0453 422.019 55.2912C422.597 57.537 423.657 59.0449 425.198 59.8149C426.739 60.5207 428.89 60.8736 431.652 60.8736Z" fill="#FAFAFA"/>
<path d="M507.555 77.5248H454.672V67.4186C454.672 63.3761 455.282 60.1036 456.502 57.6011C457.722 55.0986 459.392 53.0453 461.511 51.4412C463.694 49.837 466.167 48.3612 468.928 47.0137L486.074 38.64C487.038 38.1908 487.808 37.7737 488.386 37.3887C488.964 36.9396 489.381 36.4263 489.638 35.8488C489.895 35.2071 490.024 34.405 490.024 33.4425C490.024 32.2234 489.767 31.2609 489.253 30.555C488.739 29.8492 487.84 29.3359 486.556 29.015C485.272 28.6942 483.473 28.5338 481.162 28.5338C478.593 28.5338 476.666 28.7584 475.382 29.2075C474.098 29.6567 473.231 30.3946 472.781 31.4213C472.396 32.3838 472.203 33.6992 472.203 35.3675V37.1H454.094V35.56C454.094 31.2609 455.025 27.3467 456.887 23.8176C458.814 20.2243 461.864 17.3689 466.038 15.2514C470.213 13.1339 475.735 12.0751 482.607 12.0751C488.579 12.0751 493.427 13.0055 497.152 14.8664C500.941 16.7272 503.702 19.2618 505.436 22.4701C507.234 25.6142 508.133 29.1434 508.133 33.0575C508.133 37.1642 507.266 40.5971 505.532 43.3562C503.798 46.0512 501.583 48.2649 498.886 49.9974C496.189 51.6658 493.427 52.9812 490.602 53.9437L478.561 57.9861C476.699 58.6278 475.51 59.2695 474.997 59.9111C474.483 60.5528 474.226 61.3228 474.226 62.2211L483.473 61.2586H507.555V77.5248Z" fill="#FAFAFA"/>
<path d="M531.248 78.4873C524.506 78.4873 519.111 77.6531 515.066 75.9848C511.02 74.3165 508.098 71.9423 506.3 68.8623C504.502 65.7182 503.603 62.0286 503.603 57.7936V53.4624H521.423V56.7349C521.423 57.8899 521.68 58.7882 522.194 59.4299C522.707 60.0715 523.639 60.5528 524.987 60.8736C526.336 61.1303 528.262 61.2586 530.767 61.2586C534.17 61.2586 536.739 61.034 538.473 60.5849C540.207 60.0715 541.074 58.6278 541.074 56.2536C541.074 54.3928 540.656 53.1737 539.821 52.5962C538.987 51.9545 537.638 51.6337 535.776 51.6337H524.12V37.5812H533.56C535.422 37.5812 536.675 37.2925 537.317 36.715C538.023 36.1375 538.376 35.0467 538.376 33.4425C538.376 31.7742 537.831 30.6834 536.739 30.17C535.711 29.5925 533.432 29.3038 529.9 29.3038C527.588 29.3038 525.822 29.4321 524.602 29.6888C523.382 29.9455 522.547 30.4267 522.097 31.1325C521.648 31.7742 521.423 32.6725 521.423 33.8275V35.8488H503.603V32.7688C503.603 28.5338 504.662 24.8763 506.781 21.7963C508.965 18.6522 512.112 16.2459 516.221 14.5776C520.396 12.9093 525.469 12.0751 531.441 12.0751C536.322 12.0751 540.624 12.6847 544.349 13.9039C548.138 15.123 551.092 16.9839 553.211 19.4863C555.394 21.9247 556.486 25.0688 556.486 28.9188C556.486 32.9613 555.394 36.1696 553.211 38.5437C551.027 40.9179 547.72 42.2975 543.289 42.6825V43.9337C548.748 44.1262 552.793 45.6341 555.426 48.4574C558.123 51.2166 559.472 54.842 559.472 59.3336C559.472 63.3119 558.444 66.7448 556.39 69.6323C554.335 72.4556 551.22 74.6373 547.046 76.1773C542.872 77.7173 537.606 78.4873 531.248 78.4873Z" fill="#FAFAFA"/>
</svg>
